<svg t="1653041655089" class="icon" viewBox="0 0 1024 1024" version="1.1" xmlns="http://www.w3.org/2000/svg" p-id="4768" width="400" height="400"><path d="M147.721489 147.636204h737.157189v505.157441h-737.157189z" fill="#EBEBFF" p-id="4769"></path><path d="M147.721489 147.636204h737.157189v35.424498h-737.157189z" fill="#FFFFFF" p-id="4770"></path><path d="M532.476589 592.592474h-3.890552a71.463294 71.463294 0 0 1-67.572743-43.410368c-15.562207-38.905518 2.457191-91.939883 47.30092-138.421739 54.672492-56.515385 68.596572-96.854264 63.272659-115.487959 0-3.071488-3.48102-12.490719-22.114716-17.405101-57.539214-15.357441-154.188712 81.906354-184.289297 117.945151A20.476589 20.476589 0 0 1 334.058445 368.578595c13.309783-15.971739 132.89306-156.236371 225.242475-131.254933a65.729849 65.729849 0 0 1 50.986705 46.072324c11.057358 39.519816-15.152676 94.601839-73.306187 154.80301-37.472157 38.905518-46.481856 75.558612-38.905518 94.601839a31.329181 31.329181 0 0 0 31.124414 17.609867H532.476589c65.115552 0 146.407608-104.430602 172.412876-144.974248a20.476589 20.476589 0 0 1 34.400668 22.114716c-11.057358 18.019398-108.116388 165.041304-206.813544 165.041304z" fill="#5CBDFF" p-id="4771"></path><path d="M269.761957 348.102006a20.476589 20.476589 0 0 1-16.381271-32.557776 456.013628 456.013628 0 0 1 112.00694-99.720986 20.476589 20.476589 0 1 1 22.319481 34.400669A425.093979 425.093979 0 0 0 286.757525 339.297073a20.476589 20.476589 0 0 1-16.995568 8.804933z" fill="#FF457A" p-id="4772"></path><path d="M911.293478 636.821905H901.055183V143.33612a20.476589 20.476589 0 0 0-20.476588-20.476588H542.714883V81.906354a30.714883 30.714883 0 0 0-61.429766 0v40.953178H143.421405a20.476589 20.476589 0 0 0-20.476588 20.476588v493.485785h-10.238295a30.714883 30.714883 0 0 0 0 61.429766h130.43587l-61.429766 288.310368A30.714883 30.714883 0 0 0 204.851171 1023.82943a31.533946 31.533946 0 0 0 6.552508 0 30.714883 30.714883 0 0 0 29.89582-24.162375l40.953177-188.179849h460.108946l40.953177 188.179849A30.714883 30.714883 0 0 0 812.801087 1023.82943a31.533946 31.533946 0 0 0 6.347742 0 30.714883 30.714883 0 0 0 23.548077-36.448328l-61.429766-288.310367h130.026338a30.714883 30.714883 0 0 0 0-61.429766zM163.897994 163.812709h696.204012v470.961538H163.897994z m569.658695 606.72132H290.443311l15.562208-72.282358h411.988962z" fill="#37348F" p-id="4773"></path><path d="M714.103929 293.019983m-24.36714 0a24.36714 24.36714 0 1 0 48.734281 0 24.36714 24.36714 0 1 0-48.734281 0Z" fill="#F4D240" p-id="4774"></path><path d="M306.005519 436.356103m-22.93378 0a22.933779 22.933779 0 1 0 45.867559 0 22.933779 22.933779 0 1 0-45.867559 0Z" fill="#47E289" p-id="4775"></path></svg>
